<svg width="22" height="22" viewBox="0 0 22 22" fill="none" xmlns="http://www.w3.org/2000/svg">
<path d="M11.0002 3.00004C12.4668 3.00004 13.6668 4.20004 13.6668 5.66671C13.6668 7.13337 12.4668 8.33337 11.0002 8.33337C9.5335 8.33337 8.3335 7.13337 8.3335 5.66671C8.3335 4.20004 9.5335 3.00004 11.0002 3.00004ZM11.0002 16.3334C14.6002 16.3334 18.7335 18.0534 19.0002 19H3.00016C3.30683 18.04 7.4135 16.3334 11.0002 16.3334ZM11.0002 0.333374C8.0535 0.333374 5.66683 2.72004 5.66683 5.66671C5.66683 8.61337 8.0535 11 11.0002 11C13.9468 11 16.3335 8.61337 16.3335 5.66671C16.3335 2.72004 13.9468 0.333374 11.0002 0.333374ZM11.0002 13.6667C7.44016 13.6667 0.333496 15.4534 0.333496 19V21.6667H21.6668V19C21.6668 15.4534 14.5602 13.6667 11.0002 13.6667Z" fill="black"/>
</svg>
