<svg width="26" height="26" viewBox="0 0 26 26" fill="none" xmlns="http://www.w3.org/2000/svg">
<path d="M17.9583 16.1294H16.8392L16.4425 15.7412C17.8308 14.1021 18.6667 11.9741 18.6667 9.65925C18.6667 4.49751 14.5442 0.313477 9.45833 0.313477C4.3725 0.313477 0.25 4.49751 0.25 9.65925C0.25 14.821 4.3725 19.005 9.45833 19.005C11.7392 19.005 13.8358 18.1567 15.4508 16.7477L15.8333 17.1502V18.2861L22.9167 25.4608L25.0275 23.3185L17.9583 16.1294ZM9.45833 16.1294C5.93083 16.1294 3.08333 13.2394 3.08333 9.65925C3.08333 6.0791 5.93083 3.1891 9.45833 3.1891C12.9858 3.1891 15.8333 6.0791 15.8333 9.65925C15.8333 13.2394 12.9858 16.1294 9.45833 16.1294Z" fill="black"/>
</svg>
