<svg width="20" height="20" viewBox="0 0 20 20" fill="none" xmlns="http://www.w3.org/2000/svg">
<path fill-rule="evenodd" clip-rule="evenodd" d="M7.68382 4.26961C8.42722 4.09331 9.20274 4 10.0001 4C14.1007 4 17.6249 6.4682 19.168 10C18.6079 11.2818 17.7869 12.4235 16.7722 13.358L15.7106 12.2964C16.4314 11.6424 17.0395 10.8661 17.5023 10C16.0702 7.31988 13.2462 5.5 10.0001 5.5C9.65328 5.5 9.31131 5.52077 8.97535 5.56114L7.68382 4.26961ZM6.7353 6.14952L5.60224 5.01645C3.48048 6.0571 1.78144 7.82728 0.832144 10C2.37526 13.5318 5.89942 16 10.0001 16C11.8862 16 13.6504 15.4778 15.1559 14.5701L14.0571 13.4713C12.851 14.1275 11.4687 14.5 10.0001 14.5C6.7539 14.5 3.9299 12.6801 2.49778 10C3.41971 8.27467 4.91845 6.90584 6.7353 6.14952ZM9.45152 6.03731C9.63087 6.01271 9.81401 6 10.0001 6C12.2093 6 14.0001 7.79086 14.0001 10C14.0001 10.1861 13.9874 10.3692 13.9628 10.5486L9.45152 6.03731ZM13.1063 12.5205C12.3729 13.4232 11.2538 14 10.0001 14C7.79097 14 6.00011 12.2091 6.00011 10C6.00011 8.74627 6.57692 7.62725 7.47963 6.89384L8.54947 7.96368C7.91426 8.41701 7.50011 9.16014 7.50011 10C7.50011 11.3807 8.6194 12.5 10.0001 12.5C10.84 12.5 11.5831 12.0859 12.0364 11.4506L13.1063 12.5205ZM11.0835 10.4977C11.0559 10.4992 11.0281 10.5 11.0001 10.5C10.1717 10.5 9.50011 9.82843 9.50011 9C9.50011 8.97202 9.50088 8.94421 9.50239 8.91661L11.0835 10.4977Z" fill="#13112F"/>
<path d="M3 3L17 17" stroke="#13112F" stroke-width="1.5" stroke-linecap="round" stroke-linejoin="round"/>
</svg>
