<svg width="24" height="24" viewBox="0 0 24 24" fill="none" xmlns="http://www.w3.org/2000/svg">
<path d="M17.4375 10.25C17.5863 10.25 17.735 10.2587 17.875 10.2762V6.63625C17.875 5.735 17.14 5 16.2387 5H4.63625C3.735 5 3 5.735 3 6.63625V15.6137C3 16.515 3.735 17.25 4.63625 17.25H13.15C12.8175 16.5938 12.625 15.85 12.625 15.0625C12.625 12.4025 14.7775 10.25 17.4375 10.25ZM10.35 12L4.75 8.66625V6.75H4.95125L10.3587 9.97L15.8975 6.75H16.125V8.64L10.35 12Z" fill="black"/>
<path d="M17.875 12L16.6413 13.2337L18.0238 14.625H14.375V16.375H18.0238L16.6413 17.7663L17.875 19L21.375 15.5L17.875 12Z" fill="black"/>
</svg>
